<svg id="portfolio-svg" width="700" height="300" viewBox="0 0 700 300" xmlns="http://www.w3.org/2000/svg" class="w-full max-w-3xl"><defs><linearGradient id="bgGradient" x1="0%" y1="0%" x2="100%" y2="0%"><stop offset="0%" style="stop-color: rgb(255, 94, 122); stop-opacity: 1; --darkreader-inline-stopcolor: var(--darkreader-text-ff5e7a, #ff6079);" data-darkreader-inline-stopcolor=""/><stop offset="50%" style="stop-color: rgb(199, 125, 255); stop-opacity: 1; --darkreader-inline-stopcolor: var(--darkreader-text-c77dff, #ca78ff);" data-darkreader-inline-stopcolor=""/><stop offset="100%" style="stop-color: rgb(123, 104, 238); stop-opacity: 1; --darkreader-inline-stopcolor: var(--darkreader-text-7b68ee, #806aec);" data-darkreader-inline-stopcolor=""/></linearGradient></defs><rect width="700" height="300" rx="20" fill="url(#bgGradient)"/><g transform="translate(100, 105)"><path d="M 0 0 L 0 100 L 14 100 L 14 56 L 44 56 C 60 56 70 44 70 28 C 70 12 60 0 44 0 Z M 14 14 L 42 14 C 50 14 54 19 54 28 C 54 37 50 42 42 42 L 14 42 Z" fill="#FFFFFF" stroke="#1a1a1a" stroke-width="1.5" data-darkreader-inline-fill="" data-darkreader-inline-stroke="" style="--darkreader-inline-fill: var(--darkreader-background-ffffff, #0e1011); --darkreader-inline-stroke: var(--darkreader-text-1a1a1a, #e8e1d6);"/><path d="M 100 40 L 100 78 C 100 90 106 98 120 98 C 128 98 134 94 137 89 L 137 96 L 151 96 L 151 40 L 137 40 L 137 75 C 137 83 133 86 127 86 C 121 86 118 82 118 75 L 118 40 Z" fill="#FFFFFF" stroke="#1a1a1a" stroke-width="1.5" data-darkreader-inline-fill="" data-darkreader-inline-stroke="" style="--darkreader-inline-fill: var(--darkreader-background-ffffff, #0e1011); --darkreader-inline-stroke: var(--darkreader-text-1a1a1a, #e8e1d6);"/><path d="M 185 51 C 176 51 170 55 170 61 C 170 67 174 70 184 72 L 194 74 C 201 76 205 77 205 81 C 205 85 201 87 195 87 C 189 87 185 85 183 81 L 170 85 C 174 94 182 99 195 99 C 208 99 220 93 220 81 C 220 71 213 67 203 65 L 193 63 C 187 62 185 61 185 58 C 185 55 188 53 193 53 C 199 53 202 55 203 59 L 216 55 C 212 45 204 39 193 39 C 187 39 185 41 185 51 Z" fill="#FFFFFF" stroke="#1a1a1a" stroke-width="1.5" data-darkreader-inline-fill="" data-darkreader-inline-stroke="" style="--darkreader-inline-fill: var(--darkreader-background-ffffff, #0e1011); --darkreader-inline-stroke: var(--darkreader-text-1a1a1a, #e8e1d6);"/><g><rect x="243" y="28" width="80" height="50" rx="25" ry="25" fill="#FFB6D9" stroke="#1a1a1a" stroke-width="2" data-darkreader-inline-fill="" data-darkreader-inline-stroke="" style="--darkreader-inline-fill: var(--darkreader-background-ffb6d9, #560023); --darkreader-inline-stroke: var(--darkreader-text-1a1a1a, #e8e1d6);"/><path d="M 255 40 L 255 118 L 269 118 L 269 88 L 289 88 C 303 88 312 78 312 63 C 312 48 303 40 289 40 Z M 269 53 L 287 53 C 294 53 297 57 297 63 C 297 69 294 75 287 75 L 269 75 Z" fill="#FFFFFF" stroke="#1a1a1a" stroke-width="1.5" data-darkreader-inline-fill="" data-darkreader-inline-stroke="" style="--darkreader-inline-fill: var(--darkreader-background-ffffff, #0e1011); --darkreader-inline-stroke: var(--darkreader-text-1a1a1a, #e8e1d6);"/></g><path d="M 345 96 L 359 96 L 361 89 L 383 89 L 385 96 L 399 96 L 380 40 L 364 40 Z M 366 76 L 372 56 L 378 76 Z" fill="#FFFFFF" stroke="#1a1a1a" stroke-width="1.5" data-darkreader-inline-fill="" data-darkreader-inline-stroke="" style="--darkreader-inline-fill: var(--darkreader-background-ffffff, #0e1011); --darkreader-inline-stroke: var(--darkreader-text-1a1a1a, #e8e1d6);"/></g></svg>